# xmcd
#
# Track frame offsets:
#	150
#	18788
#	33824
#	55799
#	68568
#	83889
#	104119
#	122921
#	139817
#	159711
#	174911
#	193843
#	211395
#	224409
#	240202
#	255948
#	272826
#	293098
#	309129
#
# Disc length: 4280 seconds
#
# Revision: 0
# Processed by: cddbd v1.5.1PL0 Copyright (c) Steve Scherf et al.
# Submitted via: audiograbber 1.83.01
#
DISCID=0610b613
DTITLE=Various Artist - Denims and Diamonds
DYEAR=2002
DGENRE=Country
TTITLE0=Lonestar - Amazed
TTITLE1=LeAnn Rimes - But I do love you
TTITLE2=Lee Ann Womack - I hope you dance
TTITLE3=Alan Jackson - It must be love
TTITLE4=Toby Keith - How do you like me now?
TTITLE5=Tim McGraw - Please remember me
TTITLE6=Billy Gillman - One Voice
TTITLE7=Dixie Chicks - Wide open spaces
TTITLE8=Brooks and Dunn - Only in America
TTITLE9=Jo Dee Messina - That's the way
TTITLE10=Jessica Andrews - Who I am
TTITLE11=Billy Ray Cyrus - You won't be lonely now
TTITLE12=Martina McBride - I love you
TTITLE13=Eric Heatherly - Flowers on the wall
TTITLE14=Patty Loveless - That's the kind of mood I'm in
TTITLE15=The Mavericks - Here comes the rain
TTITLE16=Clint Black - When I said I do
TTITLE17=Diamond Rio - One more day
TTITLE18=Yankee Grey - All things considered
EXTD=
EXTT0=
EXTT1=
EXTT2=
EXTT3=
EXTT4=
EXTT5=
EXTT6=
EXTT7=
EXTT8=
EXTT9=
EXTT10=
EXTT11=
EXTT12=
EXTT13=
EXTT14=
EXTT15=
EXTT16=
EXTT17=
EXTT18=
PLAYORDER=
